<svg width="434" height="774" xmlns="http://www.w3.org/2000/svg" preserveAspectRatio="xMidYMid meet">
 <metadata>Created by potrace 1.15, written by Peter Selinger 2001-2017</metadata>

 <g>
  <title>background</title>
  <rect fill="none" id="canvas_background" height="776" width="436" y="-1" x="-1"/>
 </g>
 <g>
  <title>Layer 1</title>
  <path id="svg_5" d="m113,575c0,0 34,-447 34,-447c0,0 61,-1 61,-1c0,0 21,436 21,436c0,0 143,0 143,0c0,0 0,35 0,35c0,0 -271,2 -271,2c0,0 -4,-25 -4,-25" stroke-width="0" stroke="#000" fill="#fff"/>
  <path id="svg_7" d="m173.135,128.53813l4,-15l4,15l-7.99999,0z" fill-opacity="null" stroke-opacity="null" stroke-width="0" stroke="#000" fill="#fff"/>
  <rect id="svg_8" height="15" width="198" y="595" x="137" fill-opacity="null" stroke-opacity="null" stroke-width="0" stroke="#000" fill="#fff"/>
  <rect id="svg_9" height="34" width="284" y="607" x="95" fill-opacity="null" stroke-opacity="null" stroke-width="0" stroke="#000" fill="#fff"/>
  <rect id="svg_10" height="50" width="71" y="635" x="124" fill-opacity="null" stroke-opacity="null" stroke-width="0" stroke="#000" fill="#fff"/>
  <rect id="svg_11" height="50" width="71" y="635" x="282.05063" fill-opacity="null" stroke-opacity="null" stroke-width="0" stroke="#000" fill="#fff"/>
  <path id="svg_15" d="m190,440c0,0 -77,-128 -77,-128c0,0 78,151 78,151c0,0 -18,-123 -18,-123c0,0 32,144 30,138c-2,-6 -17,-87 -17,-87" opacity="0.5" fill-opacity="null" stroke-opacity="null" stroke-width="0" stroke="#000" fill="none"/>
 </g>
</svg>